<svg id="Layer_1" data-name="Layer 1" xmlns="http://www.w3.org/2000/svg" xmlns:xlink="http://www.w3.org/1999/xlink" viewBox="0 0 86.36 100"><defs><style>.cls-1{fill:#fff;}.cls-2{fill:#e6e7e8;}.cls-3{fill:url(#linear-gradient);}.cls-4{fill:url(#linear-gradient-2);}</style><linearGradient id="linear-gradient" x1="66.32" y1="64.85" x2="32.42" y2="64.85" gradientTransform="matrix(1, 0, 0, -1, 0, 102)" gradientUnits="userSpaceOnUse"><stop offset="0" stop-color="#58595b"/><stop offset="0.04" stop-color="#484849"/><stop offset="0.11" stop-color="#343133"/><stop offset="0.18" stop-color="#272425"/><stop offset="0.24" stop-color="#231f20"/><stop offset="0.46" stop-color="#231f20"/><stop offset="0.5" stop-color="#231f20"/><stop offset="0.52" stop-color="#2e2c2d"/><stop offset="0.56" stop-color="#383738"/><stop offset="0.62" stop-color="#3e3e3f"/><stop offset="0.76" stop-color="#404041"/><stop offset="0.86" stop-color="#434445"/><stop offset="0.95" stop-color="#4e4e50"/><stop offset="1" stop-color="#58595b"/></linearGradient><linearGradient id="linear-gradient-2" x1="32.58" y1="36.74" x2="66.46" y2="36.74" gradientTransform="matrix(1, 0, 0, -1, -6.34, 102)" gradientUnits="userSpaceOnUse"><stop offset="0" stop-color="#262261"/><stop offset="0.09" stop-color="#224082"/><stop offset="0.26" stop-color="#1b75bb"/><stop offset="0.37" stop-color="#1a77bc"/><stop offset="0.41" stop-color="#197ec0"/><stop offset="0.44" stop-color="#1589c6"/><stop offset="0.46" stop-color="#109acf"/><stop offset="0.48" stop-color="#0ab0db"/><stop offset="0.5" stop-color="#02cbea"/><stop offset="0.5" stop-color="#00d3ee"/><stop offset="0.51" stop-color="#02cbea"/><stop offset="0.53" stop-color="#0ab0db"/><stop offset="0.55" stop-color="#109acf"/><stop offset="0.58" stop-color="#1589c6"/><stop offset="0.62" stop-color="#197ec0"/><stop offset="0.67" stop-color="#1a77bc"/><stop offset="0.82" stop-color="#1b75bb"/><stop offset="0.95" stop-color="#233878"/><stop offset="1" stop-color="#262261"/></linearGradient></defs><title>logo2</title><g id="Dice_Background" data-name="Dice Background"><polygon class="cls-1" points="86.25 75.09 43.08 100 0 74.91 0.09 24.91 43.28 0 86.36 25.09 86.25 75.09"/></g><g id="Dice"><path d="M73.2,34.9c0,.11-.13.35-.24.57-1.15,2-2.33,4.09-3.48,6.14q-3,5.32-6,10.62l-5.16,9.05c-1.81,3.18-3.59,6.35-5.4,9.53-.85,1.5-1.72,3-2.57,4.5a4.33,4.33,0,0,1-.26.41.65.65,0,0,1-1.17,0c-.35-.52-.65-1.07-1-1.61L43.52,66.3Q41,61.92,38.61,57.57c-1.35-2.39-2.72-4.77-4.09-7.16s-2.68-4.74-4-7.09c-1.48-2.61-3-5.22-4.44-7.85a1.88,1.88,0,0,1-.22-.52.64.64,0,0,1,.5-.83,2.37,2.37,0,0,1,.57-.07H72.31C72.88,34.07,73.2,34.33,73.2,34.9Z" transform="translate(-6.34)"/><path d="M87.93,71.43a1.14,1.14,0,0,1-1,1.22c-1.59.24-3.15.46-4.74.67l-6,.83-6.81,1L58.49,76.63c-1.87.26-3.74.52-5.61.74a1,1,0,0,1-.74-.2,1,1,0,0,1,0-.81c1.09-2,2.22-4,3.33-5.92,1.94-3.39,3.85-6.79,5.79-10.18,1.5-2.63,3-5.29,4.48-7.92l5.66-10c1-1.85,2.09-3.7,3.13-5.53a1.21,1.21,0,0,1,.11-.17c.37-.5.78-.48,1,.09s.5,1.39.76,2.09l3,8.49c1.5,4.29,3,8.55,4.53,12.84,1.15,3.26,2.28,6.51,3.44,9.77C87.63,70.47,87.8,71,87.93,71.43Z" transform="translate(-6.34)"/><path d="M46.27,77.39,42,76.81l-7.33-1-8.51-1.2L18.35,73.5l-6.18-.85a1.11,1.11,0,0,1-1-1.61Q13,65.92,14.82,60.77c1.11-3.18,2.24-6.35,3.35-9.53s2.31-6.51,3.44-9.77c.5-1.46,1-2.92,1.52-4.35.11-.33.22-.83.63-.78.26,0,.57.37.74.63C26,39.49,27.4,42,28.84,44.58c1.94,3.42,3.87,6.85,5.83,10.27,1.65,2.92,3.33,5.83,5,8.75,1.87,3.31,3.76,6.61,5.64,9.92.54,1,1.09,1.91,1.61,2.89C47.2,77,46.92,77.44,46.27,77.39Z" transform="translate(-6.34)"/><path d="M49.46,32H27.55c-.37,0-.85.13-1-.33s.22-.7.46-1c1.7-1.91,3.37-3.85,5.07-5.77q3.26-3.66,6.53-7.33c1.61-1.81,3.18-3.63,4.79-5.44,1.39-1.59,2.81-3.13,4.22-4.72.26-.28.5-.61.76-.89.85-.94,1.52-.94,2.37,0l4.5,5.09,8.4,9.44,6.7,7.57c.65.74,1.33,1.48,2,2.24.15.2.33.57.24.72a.9.9,0,0,1-.72.33c-2.74,0-5.5,0-8.25,0H49.49A.07.07,0,0,0,49.46,32Z" transform="translate(-6.34)"/><path d="M83.78,75.48a4.51,4.51,0,0,1-.52.37c-2.55,1.46-5.09,2.94-7.64,4.42L68.2,84.57l-11,6.33L51.88,94c-.81.46-1.31.15-1.31-.78V81.35a1.65,1.65,0,0,1,1.48-1.7l11.31-1.57,11.44-1.57,8.38-1.17a4.9,4.9,0,0,1,.57,0A.47.47,0,0,1,83.78,75.48Z" transform="translate(-6.34)"/><path d="M15.28,75.28a4.91,4.91,0,0,1,.57,0l11.31,1.54c4.87.67,9.73,1.37,14.6,2.07l5.31.72a1.66,1.66,0,0,1,1.39,1.61c0,3.46,0,6.92,0,10.38v1.57c0,.91-.5,1.22-1.28.78l-3.44-2-5.66-3.26q-4.37-2.55-8.75-5.07Q24,80.56,18.59,77.48c-.94-.54-1.89-1.09-2.83-1.65-.17-.11-.33-.24-.48-.35Z" transform="translate(-6.34)"/><path d="M88.5,66.36a4.28,4.28,0,0,1-.28-.54L84.62,55.64c-.87-2.48-1.76-4.94-2.63-7.42l-3.85-11-.65-1.81c-.52-1.41-.26-2,1.13-2.65L86,29.53,87.28,29c.94-.37,1.39,0,1.39,1V65.69c0,.22,0,.44,0,.65Z" transform="translate(-6.34)"/><path d="M10.41,66.34c0-.24-.07-.48-.07-.72V43.76c0-4.59,0-9.2,0-13.79a1.58,1.58,0,0,1,.2-.85.77.77,0,0,1,1-.17l4.63,2,4.55,2a1.46,1.46,0,0,1,.91,2c-.52,1.59-1.09,3.15-1.65,4.72L16.11,50.74c-1.13,3.18-2.24,6.38-3.35,9.57-.63,1.83-1.28,3.63-1.91,5.46-.07.2-.2.39-.28.59Z" transform="translate(-6.34)"/><path d="M43.87,8.38c-.24.3-.46.61-.72.89-2.18,2.46-4.37,4.9-6.55,7.35q-4.37,4.93-8.75,9.9l-3.61,4.07a2.07,2.07,0,0,1-2.52.52c-2.89-1.31-5.81-2.57-8.7-3.87a1.15,1.15,0,0,1-.59-.61c-.11-.35.22-.57.5-.72L20,21.85q4.34-2.48,8.68-5l7.44-4.26c2.37-1.37,4.77-2.72,7.14-4.09a3.42,3.42,0,0,1,.5-.2A.41.41,0,0,1,43.87,8.38Z" transform="translate(-6.34)"/><path d="M55.27,8.25a3.15,3.15,0,0,1,.48.2c2.57,1.46,5.13,2.94,7.7,4.42l9,5.16,8.94,5.16L86,25.78c.07,0,.17.07.22.13.15.22.41.46.41.7s-.28.48-.5.59c-1.28.61-2.59,1.17-3.89,1.74l-4.9,2.15a2.06,2.06,0,0,1-2.5-.48L67.63,22.5,58.49,12.18l-3-3.39c-.11-.13-.2-.28-.3-.44A.38.38,0,0,1,55.27,8.25Z" transform="translate(-6.34)"/></g><g id="AG_Background" data-name="AG Background"><path class="cls-2" d="M43.41,59.66,30.36,54.35v-32L49.51,14.6l19.15,7.79v32L55.6,59.66V43.39L49.51,41.3l-6.09,2.09V59.66m.11-27.07,6-1.89,6,1.89V29.72l-6-2.61-6,2.61Zm0,50.35-3-1.22L30.36,77.59V45.1l3.07,1.24,16.08,6.53L68.65,45.1V77.61l-1.35.54L55.6,82.92v0l-6,2.46ZM47.33,73V64.8L49,64.14l-5.55-2.26v9.57Z" transform="translate(-6.34)"/></g><g id="AG"><path class="cls-3" d="M49.51,17.41,32.58,24.3v29l8.77,3.57V42.28l8.16-2.81h0l8.16,2.81V56.9l8.77-3.57v-29Zm8.18,17.73-8.16-2.57h0l-8.16,2.57V27.87l8.16-3.57,8.16,3.57Z" transform="translate(-6.34)"/><polygon class="cls-4" points="43.17 61.68 60.12 54.81 60.12 47.93 43.17 54.81 26.3 47.95 26.24 47.93 26.24 47.93 26.24 54.81 26.24 68.82 26.24 75.72 26.24 75.72 35.01 79.29 35.01 79.27 43.17 82.59 51.35 79.27 51.35 79.29 60.12 75.72 60.12 75.72 60.12 68.82 60.12 65.91 60.12 61.81 60.12 59.03 43.17 65.91 43.17 72.8 51.35 69.47 51.35 72.39 43.17 75.72 35.01 72.39 35.01 58.38 43.17 61.68"/></g></svg>